<svg data-v-0dd9719b="" version="1.0" xmlns="http://www.w3.org/2000/svg" xmlns:xlink="http://www.w3.org/1999/xlink" width="100%" height="100%" viewBox="0 0 340.000000 250.000000" preserveAspectRatio="xMidYMid meet" color-interpolation-filters="sRGB" style="margin: auto;"> <rect data-v-0dd9719b="" x="0" y="0" width="100%" height="100%" fill="#fff" fill-opacity="1" class="background"></rect> <rect data-v-0dd9719b="" x="0" y="0" width="100%" height="100%" fill="url(#watermark)" fill-opacity="1" class="watermarklayer"></rect> <g data-v-0dd9719b="" fill="#333" class="icon-text-wrapper icon-svg-group iconsvg" transform="translate(65.74000549316406,95.03805160522461)"><g class="iconsvg-imagesvg" transform="translate(0,0)"><g><rect fill="#333" fill-opacity="0" stroke-width="2" x="0" y="0" width="60" height="59.9238966512529" class="image-rect"></rect> <svg x="0" y="0" width="60" height="59.9238966512529" filtersec="colorsb2414534335" class="image-svg-svg primary" style="overflow: visible;"><svg xmlns="http://www.w3.org/2000/svg" viewBox="-0.013412523083388805 0 100.12681579589844 100"><g fill-rule="evenodd"><path d="M50.05 64.56a33.61 33.61 0 0 1-33.61-33.62 2.25 2.25 0 0 1 4.5 0 29.11 29.11 0 0 0 29.11 29.12 9 9 0 1 1 0 18 2.25 2.25 0 1 1 0-4.49 4.5 4.5 0 0 0 3.19-1.33 4.51 4.51 0 0 0-3.19-7.69zm0-12.31a21.31 21.31 0 0 1-2.25-42.5V0a50.05 50.05 0 0 0 0 100v-9.74a21.27 21.27 0 0 1-13.54-6.9 2.24 2.24 0 1 1 3.32-3 17 17 0 0 0 5.66 4.1 16.82 16.82 0 1 0 6.81-32.2z" fill="#0d72ff"></path><path d="M50.05 35.45a33.63 33.63 0 0 1 33.62 33.62 2.25 2.25 0 0 1-4.5 0A29.12 29.12 0 0 0 50.05 40a9 9 0 0 1 0-18 2.25 2.25 0 0 1 0 4.5 4.51 4.51 0 1 0 0 9zm0 12.3a21.32 21.32 0 0 1 2.25 42.51V100a50.05 50.05 0 0 0 0-100v9.75a21.36 21.36 0 0 1 13.55 6.89 2.24 2.24 0 0 1-3.33 3 16.82 16.82 0 1 0-12.47 28.1z" fill="#0daeff"></path></g></svg></svg> <!----></g></g> <g transform="translate(67,4.26788330078125)"><g data-gra="path-name" fill-rule="" class="tp-name iconsvg-namesvg" transform="translate(0,0)"><g transform="scale(1)"><g><path d="M18.95-18.68Q21.29-4.72 34.52 1.8L34.52 1.8Q33.84 1.75 33.37 2.05 32.89 2.34 32.31 2.88L32.31 2.88Q31.81 3.33 31.41 3.58 31 3.82 30.51 3.82L30.51 3.82Q29.74 3.82 28.8 3.1L28.8 3.1Q23.89-0.94 21.53-6.43 19.17-11.92 18.31-18.31L18.31-18.31Q17.73-13.18 16.11-9.07 14.49-4.95 10.98-1.35 7.47 2.25 1.57 5.08L1.57 5.08 1.13 4.46Q6.08 1.4 9.04-2.23 12.01-5.85 13.41-9.83 14.8-13.81 15.3-18.68L15.3-18.68 2.21-18.68Q1.98-18.68 1.8-18.83 1.62-18.99 1.62-19.21L1.62-19.21Q1.62-19.48 1.8-19.64 1.98-19.8 2.21-19.8L2.21-19.8 15.39-19.8Q15.66-23.27 15.66-28.3L15.66-28.3 15.66-30.91Q15.79-31 16.34-31.16 16.88-31.32 17.41-31.32L17.41-31.32Q18.86-31.32 18.86-29.88L18.86-29.88Q18.86-24.03 18.45-19.8L18.45-19.8 29.92-19.8Q30.73-19.8 31.18-19.98 31.63-20.16 32.04-20.47L32.04-20.47Q32.27-20.65 32.49-20.77 32.71-20.88 32.98-20.88L32.98-20.88Q33.48-20.88 33.8-20.56 34.11-20.25 34.11-19.75L34.11-19.75Q34.11-19.3 33.77-18.99 33.44-18.68 32.98-18.68L32.98-18.68 18.95-18.68ZM47.16-7.06Q46.94-7.06 46.75-7.25 46.58-7.42 46.58-7.65L46.58-7.65Q46.58-7.88 46.75-8.05 46.94-8.23 47.16-8.23L47.16-8.23 57.33-8.23 57.33-14.26 51.44-14.26Q51.03-13.18 50.22-13.18L50.22-13.18Q49.81-13.18 49.41-13.43 49-13.68 48.73-13.93 48.47-14.17 48.38-14.26L48.38-14.26Q49.23-16.25 50.27-18.88 51.3-21.51 52.2-23.94L52.2-23.94 47.56-23.94Q47.34-23.94 47.16-24.12 46.98-24.3 46.98-24.52L46.98-24.52Q46.98-24.75 47.16-24.93 47.34-25.11 47.56-25.11L47.56-25.11 52.61-25.11Q53.77-28.21 54.67-31.27L54.67-31.27Q54.77-31.32 55.01-31.36 55.26-31.41 55.66-31.41L55.66-31.41Q57.24-31.41 57.24-30.11L57.24-30.11Q57.24-29.65 57.06-29.16L57.06-29.16 55.62-25.11 65.03-25.11Q65.83-25.11 66.28-25.29 66.73-25.47 67.14-25.79L67.14-25.79Q67.36-25.96 67.59-26.08 67.81-26.19 68.09-26.19L68.09-26.19Q68.53-26.19 68.87-25.85 69.21-25.52 69.21-25.06L69.21-25.06Q69.21-24.61 68.87-24.28 68.53-23.94 68.09-23.94L68.09-23.94 55.22-23.94 51.88-15.43 57.33-15.43 57.33-20.79Q57.47-20.84 57.94-20.97 58.41-21.11 58.91-21.11L58.91-21.11Q60.16-21.11 60.16-19.98L60.16-19.98 60.16-15.43 63.95-15.43Q64.75-15.43 65.2-15.62 65.66-15.79 66.06-16.11L66.06-16.11Q66.28-16.29 66.51-16.4 66.73-16.52 67-16.52L67-16.52Q67.5-16.52 67.81-16.2 68.13-15.88 68.13-15.39L68.13-15.39Q68.13-14.94 67.81-14.6 67.5-14.26 67-14.26L67-14.26 60.16-14.26 60.16-8.23 65.75-8.23Q66.56-8.23 66.98-8.41 67.41-8.59 67.91-8.91L67.91-8.91Q68.4-9.31 68.81-9.31L68.81-9.31Q69.3-9.31 69.62-9 69.93-8.69 69.93-8.19L69.93-8.19Q69.93-7.74 69.59-7.4 69.25-7.06 68.81-7.06L68.81-7.06 60.16-7.06 60.16-0.54Q60.16 0.27 58.91 0.27L58.91 0.27Q58.41 0.27 57.94 0.18 57.47 0.09 57.33 0.04L57.33 0.04 57.33-7.06 47.16-7.06ZM43.83-20.65Q43.52-22.68 41.83-25.85 40.14-29.02 38.84-30.06L38.84-30.06 39.38-30.6Q42.66-29.16 44.21-27.45 45.77-25.74 45.77-24.03L45.77-24.03Q45.77-22 43.83-20.65L43.83-20.65ZM58.95 1.44L70.74 1.44Q70.16 1.84 69.86 2.34 69.57 2.83 69.39 3.42L69.39 3.42Q69.16 4 68.94 4.27 68.72 4.54 68.22 4.54L68.22 4.54 58.05 4.54Q54.54 4.54 52.18 4 49.81 3.46 48.06 2.16 46.3 0.85 44.73-1.44L44.73-1.44Q44.46-1.93 44.14-1.93L44.14-1.93Q43.88-1.93 43.52-1.44L43.52-1.44Q43.29-1.08 41.85 1.03L41.85 1.03 40.14 3.55Q39.47 4.5 38.88 4.5L38.88 4.5Q38.34 4.5 37.96 3.89 37.58 3.28 37.37 2.63 37.17 1.98 37.13 1.8L37.13 1.8Q37.4 1.57 39.73-0.27L39.73-0.27Q42.3-2.29 42.3-2.29L42.3-2.29 42.3-16.52 37.98-16.52Q37.76-16.52 37.58-16.7 37.4-16.88 37.4-17.1L37.4-17.1Q37.4-17.32 37.58-17.48 37.76-17.64 37.98-17.64L37.98-17.64 42.3-17.64 42.3-18.5Q42.44-18.54 42.88-18.68 43.34-18.81 43.78-18.81L43.78-18.81Q45-18.81 45-17.64L45-17.64 45-2.97Q45.31-2.65 45.31-2.65L45.31-2.65Q47.52-0.22 50.53 0.61 53.55 1.44 58.95 1.44L58.95 1.44ZM74.2-24.7Q73.98-24.7 73.8-24.88 73.62-25.06 73.62-25.29L73.62-25.29Q73.62-25.52 73.8-25.7 73.98-25.88 74.2-25.88L74.2-25.88 81.63-25.88Q80.59-29.2 78.34-31.45L78.34-31.45 78.7-31.68Q83.56-30.11 83.56-27.9L83.56-27.9Q83.56-26.86 82.58-25.88L82.58-25.88 86.17-25.88Q86.98-25.88 87.46-26.05 87.93-26.23 88.18-26.44 88.42-26.64 88.52-26.68L88.52-26.68Q88.78-26.91 89.14-26.95L89.14-26.95 89.14-26.95 89.19-26.95 89.19-26.95 89.23-26.95 89.23-26.95Q89.73-26.95 90.05-26.64 90.36-26.32 90.36-25.83L90.36-25.83Q90.36-25.38 90.02-25.04 89.69-24.7 89.23-24.7L89.23-24.7 74.2-24.7ZM105.16-18.77Q105.62-18.77 105.95-18.43 106.29-18.09 106.29-17.64L106.29-17.64Q106.29-17.19 105.95-16.85 105.62-16.52 105.16-16.52L105.16-16.52 101.61-16.52 101.61 4.32Q101.61 5.13 100.35 5.13L100.35 5.13Q99.86 5.13 99.38 5.04 98.91 4.95 98.78 4.91L98.78 4.91 98.78-16.52 94.09-16.52 94.09-15.21Q94.09-10.93 93.58-7.47 93.06-4 91.35-0.7 89.64 2.61 86.36 5.04L86.36 5.04 85.95 4.59Q89.14 0.85 90.22-3.96 91.31-8.78 91.31-15.25L91.31-15.25 91.31-27.95Q91.44-27.99 91.91-28.13 92.38-28.26 92.88-28.26L92.88-28.26Q94.09-28.26 94.09-27.18L94.09-27.18Q96.16-27.9 98.41-29.16 100.66-30.42 102.15-31.54L102.15-31.54Q102.33-31.45 102.89-31.16 103.45-30.87 103.97-30.4 104.49-29.92 104.49-29.47L104.49-29.47Q104.49-28.93 103.55-28.48L103.55-28.48Q101.66-27.81 99.11-27.13 96.57-26.46 94.09-26.05L94.09-26.05 94.09-17.68 100.22-17.68 100.44-17.68 102.11-17.68Q102.91-17.68 103.36-17.86 103.81-18.04 104.22-18.36L104.22-18.36Q104.44-18.54 104.67-18.65 104.89-18.77 105.16-18.77L105.16-18.77ZM88.97-10.08L82.98-10.08 82.98 1.67Q82.98 5.04 81.14 5.04L81.14 5.04Q80.64 5.04 80.44 4.84 80.23 4.63 80.01 4.14L80.01 4.14Q79.65 3.33 78.95 2.83 78.25 2.34 76.36 2.34L76.36 2.34 76.36 1.53 79.42 1.53Q79.92 1.53 80.08 1.37 80.23 1.21 80.23 0.77L80.23 0.77 80.23-10.08 74.43-10.08Q74.2-10.08 74.03-10.26 73.84-10.44 73.84-10.66L73.84-10.66Q73.84-10.89 74.03-11.07 74.2-11.25 74.43-11.25L74.43-11.25 80.23-11.25 80.23-16.02 73.48-16.02Q73.26-16.02 73.08-16.2 72.9-16.38 72.9-16.61L72.9-16.61Q72.9-16.83 73.08-17.01 73.26-17.19 73.48-17.19L73.48-17.19 78.17-17.19Q77.81-21.11 76-23.98L76-23.98 76.41-24.16Q80.23-22.05 80.23-19.89L80.23-19.89Q80.23-18.4 78.48-17.19L78.48-17.19 83.07-17.19Q84.19-20.93 84.73-24.52L84.73-24.52Q84.91-24.52 85.57-24.43 86.22-24.34 86.83-24.03 87.44-23.71 87.44-23.09L87.44-23.09Q87.44-22.86 87.3-22.5L87.3-22.5Q85.95-19.75 84.02-17.19L84.02-17.19 86.53-17.19Q87.39-17.19 87.84-17.37 88.29-17.55 88.69-17.86L88.69-17.86Q88.92-18.04 89.14-18.16 89.37-18.27 89.64-18.27L89.64-18.27Q90.09-18.27 90.41-17.93 90.72-17.59 90.72-17.14L90.72-17.14Q90.72-16.7 90.41-16.36 90.09-16.02 89.64-16.02L89.64-16.02 82.98-16.02 82.98-11.25 85.91-11.25Q86.72-11.25 87.14-11.43 87.57-11.61 88.06-11.92L88.06-11.92Q88.56-12.33 88.97-12.33L88.97-12.33Q89.46-12.33 89.78-12.01 90.09-11.7 90.09-11.21L90.09-11.21Q90.09-10.75 89.78-10.42 89.46-10.08 88.97-10.08L88.97-10.08ZM76.45-9Q76.5-9 76.68-9.02 76.86-9.04 77.13-9.04L77.13-9.04Q77.94-9.04 78.55-8.75 79.16-8.46 79.16-7.69L79.16-7.69Q79.16-7.15 78.93-6.66L78.93-6.66Q77.94-4.27 76.48-1.84 75.02 0.58 73.26 2.29L73.26 2.29 72.86 1.84Q74.11-0.27 75.08-3.33 76.05-6.39 76.45-9L76.45-9ZM86.17-0.36Q86.22-2.07 85.43-4.37 84.64-6.66 83.7-8.14L83.7-8.14 84.15-8.41Q88.16-6.39 88.16-3.92L88.16-3.92Q88.16-2.25 86.17-0.36L86.17-0.36ZM120.24-24.25L114.03-24.25Q112.09-19.93 109.44-16.92L109.44-16.92 108.94-17.23Q111.96-23.8 112.64-31.54L112.64-31.54Q112.72-31.54 113-31.59 113.27-31.63 113.67-31.63L113.67-31.63Q115.83-31.63 115.83-30.06L115.83-30.06Q115.83-29.92 115.74-29.38L115.74-29.38Q115.33-27.72 114.48-25.43L114.48-25.43 117.18-25.43Q117.99-25.43 118.44-25.61 118.89-25.79 119.3-26.1L119.3-26.1Q119.52-26.28 119.75-26.39 119.97-26.5 120.24-26.5L120.24-26.5Q120.69-26.5 121.03-26.17 121.36-25.83 121.36-25.38L121.36-25.38Q121.36-24.93 121.03-24.59 120.69-24.25 120.24-24.25L120.24-24.25ZM142.02 1.08Q142.65 1.57 142.65 2.29L142.65 2.29Q142.65 2.92 142.22 3.35 141.8 3.78 141.07 3.78L141.07 3.78 136.35 3.78Q134.59 3.78 133.36 2.41 132.12 1.03 132.12-0.94L132.12-0.94 132.12-11.03 130-11.03Q129.74-7.33 128.86-4.59 127.98-1.84 125.62 0.67 123.25 3.19 118.84 5.13L118.84 5.13 118.44 4.54Q122.04 2.43 123.91-0.04 125.78-2.52 126.38-5.06 126.99-7.6 127.17-11.03L127.17-11.03 125.64-11.03 125.64-9.76Q125.64-8.91 124.42-8.91L124.42-8.91Q124.02-8.91 123.57-9 123.12-9.09 122.98-9.13L122.98-9.13 122.98-23.8Q123.12-23.85 123.57-23.98 124.02-24.12 124.47-24.12L124.47-24.12Q125.64-24.12 125.64-22.99L125.64-22.99 127.75-22.99Q127.31-24.88 126.02-27.38 124.74-29.88 123.75-30.73L123.75-30.73 124.2-31.18Q127.03-29.88 128.36-28.39 129.69-26.91 129.69-25.47L129.69-25.47Q129.69-24.07 128.52-22.99L128.52-22.99 132.44-22.99Q134.06-26.73 135.36-31.36L135.36-31.36Q135.59-31.36 136.31-31.36 137.03-31.36 137.68-31.07 138.33-30.78 138.33-30.11L138.33-30.11Q138.33-29.65 138.01-29.07L138.01-29.07Q136.22-26.01 133.74-22.99L133.74-22.99 136.26-22.99 136.26-23.8Q136.4-23.85 136.87-23.98 137.34-24.12 137.79-24.12L137.79-24.12Q139-24.12 139-22.99L139-22.99 139-9.76Q139-8.91 137.75-8.91L137.75-8.91Q137.29-8.91 136.84-9 136.4-9.09 136.26-9.13L136.26-9.13 136.26-11.03 134.87-11.03 134.87-0.94Q134.87-0.14 135.41 0.45 135.94 1.03 136.66 1.03L136.66 1.03 138.1 1.03Q139.23 1.03 139.7 0.32 140.18-0.4 140.18-2.02L140.18-2.02 140.63-2.02Q140.63-0.99 140.81-0.4 140.99 0.18 141.23 0.43 141.48 0.67 142.02 1.08L142.02 1.08ZM136.26-21.78L125.64-21.78 125.64-12.2 136.26-12.2 136.26-21.78ZM121.45-5.35L121.77-4.91Q117.94 0.45 115.52 3.46L115.52 3.46Q115.02 4.23 114.48 4.23L114.48 4.23Q113.94 4.23 113.51 3.53 113.08 2.83 112.84 2.09 112.59 1.35 112.55 1.13L112.55 1.13 114.21-0.04 114.21-10.71 110.34-10.71Q110.11-10.71 109.94-10.89 109.75-11.07 109.75-11.29L109.75-11.29Q109.75-11.52 109.94-11.7 110.11-11.88 110.34-11.88L110.34-11.88 114.21-11.88 114.21-18 112.36-18Q112.14-18 111.96-18.18 111.78-18.36 111.78-18.59L111.78-18.59Q111.78-18.81 111.96-18.99 112.14-19.17 112.36-19.17L112.36-19.17 116.91-19.17Q117.72-19.17 118.15-19.35 118.58-19.53 119.07-19.84L119.07-19.84Q119.56-20.25 119.97-20.25L119.97-20.25 119.97-20.25Q120.42-20.25 120.76-19.91 121.09-19.57 121.09-19.13L121.09-19.13Q121.09-18.68 120.78-18.34 120.47-18 119.97-18L119.97-18 116.91-18 116.91-11.88 117.18-11.88Q117.99-11.88 118.44-12.06 118.89-12.24 119.3-12.55L119.3-12.55Q119.52-12.73 119.75-12.85 119.97-12.96 120.24-12.96L120.24-12.96Q120.73-12.96 121.05-12.64 121.36-12.33 121.36-11.83L121.36-11.83Q121.36-11.38 121.05-11.05 120.73-10.71 120.24-10.71L120.24-10.71 116.91-10.71 116.91-1.98Q120.19-4.27 121.45-5.35L121.45-5.35Z" transform="translate(-1.1299999952316284, 31.68000030517578)"></path></g> <!----> <!----> <!----> <!----> <!----> <!----> <!----></g></g> <g data-gra="path-slogan" fill-rule="" class="tp-slogan iconsvg-slogansvg" fill="#333" transform="translate(5,42.810001373291016)"><rect x="0" height="1" y="3.7899999618530273" width="1.5649948120117188"></rect> <rect height="1" y="3.7899999618530273" width="1.5649948120117188" x="129.95499420166016"></rect> <g transform="translate(4.564994812011719,0)"><g transform="scale(1)"><path d="M4.41 0L0.94 0L0.94-8.58L4.45-8.58Q7.92-8.39 8.06-4.41L8.06-4.41Q7.88-0.09 4.41 0L4.41 0ZM4.27-7.64L2.11-7.64L2.11-0.98L4.36-0.98Q6.80-1.13 6.89-4.31L6.89-4.31Q6.84-7.55 4.27-7.64L4.27-7.64ZM15.19 0L14.34-2.48L10.88-2.48L9.98 0L8.81 0L12.05-8.58L13.36-8.58L16.45 0L15.19 0ZM12.61-7.31L11.25-3.52L13.92-3.52L12.66-7.31L12.61-7.31ZM17.48-8.58L18.66-8.58L18.66-1.03L23.02-1.03L23.02 0L17.48 0L17.48-8.58ZM24.33-8.58L25.50-8.58L25.50 0L24.33 0L24.33-8.58ZM33.14 0L32.30-2.48L28.83-2.48L27.94 0L26.77 0L30-8.58L31.31-8.58L34.41 0L33.14 0ZM30.56-7.31L29.20-3.52L31.88-3.52L30.61-7.31L30.56-7.31ZM36.84-8.58L41.16-1.64L41.16-8.58L42.28-8.58L42.28 0L40.97 0L36.61-6.94L36.56-6.94L36.56 0L35.44 0L35.44-8.58L36.84-8.58ZM48.80-8.58L53.11-1.64L53.11-8.58L54.23-8.58L54.23 0L52.92 0L48.56-6.94L48.52-6.94L48.52 0L47.39 0L47.39-8.58L48.80-8.58ZM57.33-1.03L62.48-1.03L62.48 0L56.16 0L56.16-8.58L62.39-8.58L62.39-7.59L57.33-7.59L57.33-4.92L62.02-4.92L62.02-3.89L57.33-3.89L57.33-1.03ZM68.77-7.13L68.72-7.13L66.75 0L65.53 0L63.28-8.58L64.50-8.58L66.14-1.59L66.19-1.59L68.11-8.58L69.38-8.58L71.30-1.59L71.34-1.59L72.94-8.58L74.20-8.58L71.95 0L70.73 0L68.77-7.13ZM80.81-7.59L77.91-7.59L77.91-8.58L84.84-8.58L84.84-7.59L81.94-7.59L81.94 0L80.81 0L80.81-7.59ZM91.55 0L90.70-2.48L87.23-2.48L86.34 0L85.17 0L88.41-8.58L89.72-8.58L92.81 0L91.55 0ZM88.97-7.31L87.61-3.52L90.28-3.52L89.02-7.31L88.97-7.31ZM93.84-8.58L95.02-8.58L95.02-1.03L99.38-1.03L99.38 0L93.84 0L93.84-8.58ZM101.81-1.03L106.97-1.03L106.97 0L100.64 0L100.64-8.58L106.88-8.58L106.88-7.59L101.81-7.59L101.81-4.92L106.50-4.92L106.50-3.89L101.81-3.89L101.81-1.03ZM109.88-8.58L114.19-1.64L114.19-8.58L115.31-8.58L115.31 0L114 0L109.64-6.94L109.59-6.94L109.59 0L108.47 0L108.47-8.58L109.88-8.58ZM119.30-7.59L116.39-7.59L116.39-8.58L123.33-8.58L123.33-7.59L120.42-7.59L120.42 0L119.30 0L119.30-7.59Z" transform="translate(-0.9375, 8.578125)"></path></g></g></g></g></g><defs v-gra="od"></defs></svg>